<?xml version="1.0" encoding="UTF-8"?>
<!DOCTYPE svg PUBLIC "-//W3C//DTD SVG 1.1//EN" "http://www.w3.org/Graphics/SVG/1.1/DTD/svg11.dtd">
<!-- Creator: CorelDRAW -->
<svg xmlns="http://www.w3.org/2000/svg" xml:space="preserve" width="15mm" height="15mm" version="1.1" style="shape-rendering:geometricPrecision; text-rendering:geometricPrecision; image-rendering:optimizeQuality; fill-rule:evenodd; clip-rule:evenodd"
viewBox="0 0 1500 1500"
 xmlns:xlink="http://www.w3.org/1999/xlink"
 xmlns:xodm="http://www.corel.com/coreldraw/odm/2003">
 <defs>
  <style type="text/css">
   <![CDATA[
    .fil0 {fill:#F5D465;fill-rule:nonzero}
   ]]>
  </style>
 </defs>
 <g id="Layer_x0020_1">
  <metadata id="CorelCorpID_0Corel-Layer"/>
  <g id="_2111349536816">
   <path class="fil0" d="M397.33 1255.91c0,-22.45 -18.21,-40.66 -40.66,-40.66 -22.45,0 -40.66,18.21 -40.66,40.66 0,22.45 18.21,40.66 40.66,40.66 22.45,0 40.66,-18.21 40.66,-40.66zm-28.13 60.4l-24.28 0c-29.01,-9.12 -50.09,-32.62 -48.45,-63.26 1.58,-30.25 25.1,-54.48 54.81,-57.15 30.3,-2.66 57.55,17.57 64.11,46.79 6.6,29.46 -9.33,59.46 -38.79,69.92 -2.67,0.94 -5.72,2.62 -7.4,3.7z"/>
   <path class="fil0" d="M664.96 1255.91c0,-22.45 -18.21,-40.66 -40.66,-40.66 -22.45,0 -40.66,18.21 -40.66,40.66 0,22.45 18.21,40.66 40.66,40.66 22.45,0 40.66,-18.21 40.66,-40.66zm-28.57 60.4l-24.27 0c-30.2,-9.82 -51.38,-35.03 -47.67,-67.16 3.5,-30.39 29.11,-53.44 59.85,-53.49 31.33,0 57.34,24.17 60.01,55.42 2.71,31.28 -18.46,55.66 -47.92,65.23z"/>
   <path class="fil0" d="M1204.19 1068.08l0.06 219.99c22.84,-8.2 35.88,-29.17 35.88,-53.74l-0.1 -372.7c0,-32.81 -25.57,-57.19 -56.94,-56.41 -29.61,0.7 -53.94,24.63 -53.94,56.51l0.04 374.67c0,31.52 25.67,56 55.42,55.16l0.04 -224.41c0,-5.04 5.84,-9.49 9.29,-9.53 4.63,-0.15 10.25,3.46 10.25,10.46zm-531.57 8.63c14.01,0 23.77,-10.21 25.75,-21.21l4.68 -26.55 -159.52 -0.04c-5.08,0 -9.77,-5.43 -10.02,-9.49 -0.15,-3.2 4.14,-9.96 8.09,-9.96l165.55 -0.09 40.17 -216.14c1.88,-10.07 -4.54,-16.92 -14.56,-17.47l-499.27 0.06c-9.66,0 -14.99,8.82 -13.47,17.16l9.28 50.54 433.3 0.04c6.06,0 9.82,5.52 9.76,10.17 -0.04,3.7 -4,9.33 -9.82,9.33l-429.49 0.04 35.38 191.56c2.56,13.91 14.06,22.05 28.18,22.11l376.01 -0.06zm290.92 -366.62l230.54 -140.94c18.47,-11.29 23.05,-34.38 12.53,-51.3 -10.65,-17.08 -32.95,-23.45 -51.61,-12.05l-229.74 140.38c-18.76,11.46 -24.09,34.1 -13.53,51.47 10.32,16.97 32.48,24.27 51.81,12.44zm144.84 166.83c1.13,-11.85 1.33,-19.93 2.66,-28.87 5.97,-39.87 43.37,-66.16 81.22,-62.12 39.48,4.2 68.19,37.4 67.31,77.67 -0.1,4.44 0.53,9.42 1.13,13.37 11.7,-15.89 16.03,-33.45 16.03,-53.29l-0.43 -293.01c-0.11,-49.05 -40.37,-86.8 -86.55,-89.42 -46.48,-2.56 -88.82,29.86 -95.73,78.37l52.49 -31.19c27.64,-16.43 62.29,-5.97 77.53,20.42 15.25,26.35 7.15,60.46 -19.73,76.93l-111.72 68.44 -0.16 165.11c0,21.37 3.46,41.25 15.95,57.59zm-814.78 286.74l384.68 -0.04 12.98 -70.12c-8.18,1.37 -13.76,2.95 -20.28,2.95l-376.1 0c-22.75,0 -41.5,-15.54 -45.59,-37.75l-48.86 -264.24c-3.6,-19.64 12,-38.24 32.38,-38.24l496.01 -0.1c9.27,0 16.08,2.48 24.52,5.04l11.98 -64.15c0.61,-3.2 5.29,-9.27 8.35,-9.27l113.15 -0.16c-1.39,-23.44 6.71,-44.8 26.69,-57.04l159.48 -97.76c0.84,-62.11 50.19,-110.37 109.89,-111.31 60.4,-0.99 111.07,46.78 113.45,108.81l-0.06 295.67c0,32.66 -12.98,60.94 -36.56,83.29l-0.2 327.41c-0.04,42.23 -34.14,74.51 -74.31,74.84 -40.47,0.3 -75.49,-32.07 -75.49,-74.9l-0.2 -327.05c-22.35,-21.87 -36.32,-49.2 -36.36,-81.27l-0.41 -161.71 -101.14 61.49c-28.09,14.66 -60.36,6.27 -77.03,-20.77l-111.17 -0.06 -87.2 467.49c-0.78,4.06 -5.39,8.55 -9.47,8.55l-392.06 0c-4.53,0 -8.82,-4.49 -9.51,-7.42 -0.84,-3.4 1.18,-12.18 8.44,-12.18z"/>
   <path class="fil0" d="M1278.13 299.21c0,-51.67 -41.89,-93.52 -93.5,-93.52 -51.67,0 -93.57,41.85 -93.57,93.52 0,51.65 41.9,93.5 93.57,93.5 51.61,0 93.5,-41.85 93.5,-93.5zm19.7 -0.06c0,62.57 -50.68,113.24 -113.2,113.24 -62.53,0 -113.2,-50.67 -113.2,-113.24 0,-62.52 50.67,-113.2 113.2,-113.2 62.52,0 113.2,50.68 113.2,113.2z"/>
   <path class="fil0" d="M487.23 1028.89l-162.24 0.06c-6.23,0.04 -11.21,-4.6 -11.21,-9.63 0.04,-5.58 4.83,-9.91 11.21,-9.91l161.4 0c4.88,0 9.76,4.18 10.4,7.73 0.84,4.74 -2.56,11.75 -9.56,11.75z"/>
   <path class="fil0" d="M1204.29 988.79c0,5.93 -3.84,11.11 -8.18,11.85 -4.35,0.68 -11.4,-3.4 -11.4,-8.83l-0.1 -73.28c0,-4.49 5.72,-9.62 9.72,-9.78 4.19,-0.14 9.82,4.94 9.86,9.68l0.1 70.36z"/>
  </g>
 </g>
</svg>
